# xmcd
#
# Track frame offsets: 
#        182
#        19487
#        47662
#        68412
#        92145
#        116190
#        135520
#        152130
#        172675
#        194092
#        214602
#        234240
#        254492
#        271927
#        291745
#        314602
#
# Disc length: 4375 seconds
#
# Revision: 1
# Processed by: cddbd v1.5.2PL0 Copyright (c) Steve Scherf et al.
# Submitted via: ExactAudioCopyFreeDBPlugin 1.0
#
DISCID=ee111510
DTITLE=張學友 - 三年兩語
DYEAR=1995
DGENRE=Pop
TTITLE0=多麼的需要你
TTITLE1=這麼近
TTITLE2=一千個傷心的理由
TTITLE3=這個冬天不太冷
TTITLE4=我等到花兒也謝了
TTITLE5=祇有你不知到
TTITLE6=真愛
TTITLE7=餓狼傳說
TTITLE8=望月
TTITLE9=祝福
TTITLE10=非常夏日
TTITLE11=舊情綿綿
TTITLE12=來來回回
TTITLE13=等你回來
TTITLE14=吻別
TTITLE15=留住秋色
EXTD=
EXTT0=
EXTT1=
EXTT2=
EXTT3=
EXTT4=
EXTT5=
EXTT6=
EXTT7=
EXTT8=
EXTT9=
EXTT10=
EXTT11=
EXTT12=
EXTT13=
EXTT14=
EXTT15=
PLAYORDER=
